<svg width="32" height="32" viewBox="0 0 32 32" fill="none" xmlns="http://www.w3.org/2000/svg">
  <!-- Circle Background -->
  <circle cx="16" cy="16" r="16" fill="#5e35b1"/>
  
  <!-- Party Popper Handle -->
  <path d="M15 26C15 26 15.5 21 13 18.5C10.5 16 9 14.5 9 12C9 11 9.5 10.5 10.5 10.5C11.5 10.5 12.5 11 13.5 13C14.5 15 15 16 15 16" stroke="#ff9800" stroke-width="2" stroke-linecap="round"/>
  
  <!-- Confetti -->
  <circle cx="18" cy="10" r="1.5" fill="#f44336"/>
  <circle cx="22" cy="12" r="1" fill="#2196f3"/>
  <circle cx="24" cy="16" r="1.2" fill="#4caf50"/>
  <circle cx="21" cy="20" r="1" fill="#ffeb3b"/>
  <circle cx="14" cy="8" r="1" fill="#ff9800"/>
  <rect x="16" y="9" width="2" height="2" rx="0.5" transform="rotate(45 16 9)" fill="#e91e63"/>
  <rect x="20" y="10" width="1.5" height="1.5" rx="0.3" transform="rotate(-30 20 10)" fill="#9c27b0"/>
  <rect x="12" y="12" width="2" height="2" rx="0.5" transform="rotate(10 12 12)" fill="#00bcd4"/>
</svg> 